<svg width="1080" height="1080" viewBox="0 0 1080 1080" fill="none" xmlns="http://www.w3.org/2000/svg">
<rect width="1080" height="1080" fill="white"/>
<path d="M186 720.478L186 526.357L217.877 507.953L296.618 525.48L297.807 524.793L376.548 416.345L408.425 397.941L408.425 592.061L370.363 614.037L370.363 474.215L316.362 546.66L316.362 645.214L278.3 667.189L278.3 568.635L224.062 558.682L224.062 698.503L186 720.478Z" fill="black"/>
<path d="M527.653 524.583C497.362 542.071 473.89 547.387 457.238 540.53C440.586 533.492 432.26 513.684 432.26 481.104C432.26 448.705 440.586 419.463 457.238 393.379C473.89 367.113 497.917 344.915 529.318 326.785L572.137 302.063C603.539 283.934 627.565 278.388 644.217 285.426C660.869 292.283 669.195 311.91 669.195 344.309C669.195 376.889 660.869 406.312 644.217 432.578C627.565 458.663 603.935 480.541 573.327 498.213L527.653 524.583ZM531.934 360.569C514.331 370.733 500.613 382.273 490.78 395.19C480.947 408.107 474.762 423.171 472.225 440.383L629.23 349.736C626.693 335.454 620.508 327.531 610.675 325.968C600.842 324.405 587.124 328.705 569.521 338.869L531.934 360.569ZM532.648 486.404L569.521 465.115C587.283 454.86 601.001 443.32 610.675 430.495C620.508 417.578 626.693 402.423 629.23 385.03L472.225 475.678C474.762 490.14 480.947 498.153 490.78 499.716C500.613 501.279 514.569 496.842 532.648 486.404Z" fill="black"/>
<path d="M692.904 427.817L692.904 233.696L720.975 217.49L797.099 173.268C827.866 155.505 851.734 149.96 868.703 156.634C885.672 163.307 894.157 182.572 894.157 214.428C894.157 246.283 885.672 275.345 868.703 301.613C851.734 327.881 827.866 349.897 797.099 367.66L692.904 427.817ZM794.482 210.073L730.966 246.744L730.966 370.547L794.482 333.876C814.465 322.339 829.61 308.618 839.919 292.711C850.227 276.805 855.381 258.173 855.381 236.815C855.381 215.276 850.227 202.595 839.919 198.773C829.61 194.77 814.465 198.536 794.482 210.073Z" fill="black"/>
<path d="M280.224 910.46C250.304 927.735 227.12 932.896 210.672 925.944C194.224 918.811 186 898.978 186 866.443C186 834.089 194.224 804.939 210.672 778.995C227.12 752.87 250.852 730.853 281.869 712.946L324.164 688.527C355.18 670.62 378.912 665.232 395.36 672.365C411.808 679.317 420.032 698.97 420.032 731.324C420.032 763.859 411.808 793.189 395.36 819.314C378.912 845.259 355.572 866.958 325.339 884.413L280.224 910.46ZM284.453 746.7C267.065 756.739 253.515 768.177 243.803 781.014C234.091 793.852 227.982 808.856 225.475 826.029L380.557 736.492C378.051 722.214 371.941 714.264 362.229 712.641C352.517 711.018 338.967 715.226 321.579 725.265L284.453 746.7ZM285.158 872.365L321.579 851.338C339.124 841.209 352.674 829.77 362.229 817.024C371.941 804.186 378.051 789.091 380.557 771.738L225.475 861.275C227.982 875.733 234.091 883.774 243.803 885.397C253.515 887.019 267.3 882.676 285.158 872.365Z" fill="black"/>
<path d="M459.899 805.369L459.899 611.516L600.647 530.255C618.035 520.216 631.507 517.499 641.062 522.104C650.774 526.619 655.631 539.179 655.631 559.784C655.631 577.317 652.106 593.089 645.057 607.1C638.008 621.111 627.982 633.135 614.98 643.172L653.751 693.449L610.986 718.139L575.035 667.59L497.494 712.358L497.494 783.664L459.899 805.369ZM596.183 568.079L497.494 625.056L497.494 676.841L596.183 620.134C603.075 616.155 608.323 611.137 611.926 605.08C615.685 598.933 617.565 591.16 617.565 581.761C617.565 572.182 615.685 566.579 611.926 564.954C608.323 563.058 603.075 564.099 596.183 568.079Z" fill="black"/>
<path d="M768.212 628.721C751.137 638.579 737.665 643.826 727.796 644.463C717.928 644.919 710.878 641.126 706.649 633.085C702.419 625.043 700.305 613.069 700.305 597.163L700.305 472.718L737.9 451.012L737.9 575.458C737.9 589.194 740.642 597.011 746.124 598.906C751.764 600.531 761.241 597.499 774.556 589.812L819.906 563.629C833.221 555.941 842.62 548.075 848.102 540.029C853.742 531.712 856.561 520.686 856.561 506.949L856.561 382.503L894.157 360.797L894.157 485.243C894.157 501.149 892.042 515.564 887.813 528.49C883.583 541.415 876.534 553.347 866.665 564.287C856.796 575.046 843.324 585.354 826.25 595.212L768.212 628.721Z" fill="black"/>
</svg>
