<svg width="1080" height="1080" viewBox="0 0 1080 1080" fill="none" xmlns="http://www.w3.org/2000/svg">
<path fill-rule="evenodd" clip-rule="evenodd" d="M10 603.028V475.972H33.9509L38.5981 479.21V511.512V603.028H10ZM46.9988 517.08V485.064L93.1132 517.198H94.0069L153.169 475.972H177.12V603.028H148.522V511.512L107.948 538.523V603.028H79.3503V538.523L46.9988 517.08Z" fill="white"/>
<path fill-rule="evenodd" clip-rule="evenodd" d="M266.703 603.917C243.943 603.917 226.308 598.527 213.796 587.746C201.285 576.847 195.029 560.735 195.029 539.411C195.029 535.372 195.255 531.522 195.709 527.861H225.057H343.024H372.371C372.825 531.522 373.052 535.372 373.052 539.411C373.052 560.735 366.796 576.847 354.284 587.746C341.773 598.527 324.018 603.917 301.02 603.917H266.703ZM370.948 519.864C368.162 508.08 362.607 498.603 354.284 491.432C341.773 480.533 323.72 475.083 300.127 475.083H267.954C244.36 475.083 226.308 480.533 213.796 491.432C205.474 498.603 199.919 508.08 197.132 519.864H227.3C229.778 513.563 233.677 508.705 238.998 505.292C246.386 500.554 256.693 498.184 269.92 498.184H298.161C311.387 498.184 321.694 500.554 329.082 505.292C334.403 508.705 338.302 513.563 340.78 519.864H370.948ZM270.456 580.816H298.161C311.506 580.816 321.814 578.446 329.082 573.708C336.47 568.969 341.117 561.387 343.024 550.962H225.057C226.963 561.387 231.61 568.969 238.998 573.708C246.386 578.446 256.872 580.816 270.456 580.816Z" fill="white"/>
<path fill-rule="evenodd" clip-rule="evenodd" d="M390.866 603.028V475.972H411.957L419.464 475.948V498.895V579.927V603.028H390.866ZM428.068 498.895H467.187C482.201 498.895 493.58 502.153 501.326 508.669C509.071 515.066 512.944 525.313 512.944 539.411C512.944 553.39 509.071 563.638 501.326 570.154C493.58 576.669 482.201 579.927 467.187 579.927H428.068V603.028H469.153C492.27 603.028 510.203 597.638 522.953 586.858C535.703 576.077 542.078 560.262 542.078 539.411C542.078 518.561 535.703 502.745 522.953 491.965C510.203 481.184 492.27 475.794 469.153 475.794L428.068 475.921V498.895Z" fill="white"/>
<path fill-rule="evenodd" clip-rule="evenodd" d="M628.019 603.917C605.259 603.917 587.624 598.527 575.112 587.746C566.762 580.472 561.198 570.876 558.421 558.958H588.583C591.059 565.363 594.969 570.279 600.314 573.708C607.702 578.446 618.188 580.816 631.772 580.816H659.477C672.822 580.816 683.13 578.446 690.398 573.708C695.743 570.279 699.653 565.363 702.129 558.958H732.292C729.515 570.876 723.951 580.472 715.6 587.746C703.089 598.527 685.334 603.917 662.336 603.917H628.019ZM586.373 550.962H704.34H733.695C734.144 547.298 734.368 543.448 734.368 539.411C734.368 518.205 728.112 502.212 715.6 491.432C703.089 480.533 685.036 475.083 661.443 475.083H629.27C605.676 475.083 587.624 480.533 575.112 491.432C562.601 502.212 556.345 518.205 556.345 539.411C556.345 543.448 556.569 547.298 557.017 550.962H586.373ZM631.236 498.184C618.009 498.184 607.702 500.554 600.314 505.292C592.926 510.031 588.279 517.554 586.373 527.861H704.34C702.433 517.554 697.786 510.031 690.398 505.292C683.01 500.554 672.703 498.184 659.477 498.184H631.236Z" fill="white"/>
<path fill-rule="evenodd" clip-rule="evenodd" d="M752.182 603.028V475.972H780.78V499.073V533.014V556.293V603.028H752.182ZM789.119 556.293H791.621H839.763L867.11 603.028H899.64L870.149 555.404C880.039 553.746 887.665 549.659 893.027 543.143C898.389 536.627 901.07 527.624 901.07 516.132C901.07 502.627 897.376 492.557 889.989 485.923C882.72 479.289 872.472 475.972 859.246 475.972H789.119V499.073H855.85C861.093 499.073 865.084 500.376 867.825 502.982C870.685 505.47 872.115 509.853 872.115 516.132C872.115 522.293 870.685 526.676 867.825 529.282C865.084 531.888 861.093 533.192 855.85 533.192L791.621 533.04L789.119 533.034V556.293Z" fill="white"/>
<path fill-rule="evenodd" clip-rule="evenodd" d="M959.769 603.101C964.129 603.645 968.938 603.917 974.196 603.917H1018.34C1031.33 603.917 1041.58 602.258 1049.09 598.941C1056.59 595.506 1061.96 590.352 1065.17 583.481C1068.39 576.61 1070 567.962 1070 557.537V475.972H1041.4V557.537C1041.4 566.54 1039.26 572.701 1034.97 576.018C1030.8 579.216 1023.65 580.816 1013.52 580.816H979.022C970.573 580.816 964.155 579.703 959.769 577.477V603.101ZM951.139 601.527V557.537V475.972H922.541V557.537C922.541 567.962 924.15 576.61 927.367 583.481C930.584 590.352 935.947 595.506 943.454 598.941C945.757 599.959 948.319 600.821 951.139 601.527Z" fill="white"/>
</svg>
