<svg width="1080" height="1080" viewBox="0 0 1080 1080" fill="none" xmlns="http://www.w3.org/2000/svg">
<path d="M100 513.369V304.461H139.612L237.46 372.247H238.938L336.786 304.461H376.399V513.369H329.101V362.897L261.996 407.308V513.369H214.698V407.308L147.298 362.897V513.369H100Z" fill="black"/>
<path d="M524.559 514.83C486.917 514.83 457.75 505.967 437.057 488.242C416.364 470.322 406.018 443.831 406.018 408.769C406.018 373.902 416.364 347.606 437.057 329.881C457.75 311.96 487.607 303 526.628 303H579.839C618.86 303 648.717 311.96 669.409 329.881C690.102 347.606 700.449 373.902 700.449 408.769C700.449 443.831 690.102 470.322 669.409 488.242C648.717 505.967 619.352 514.83 581.317 514.83H524.559ZM529.88 340.983C508.004 340.983 490.957 344.879 478.739 352.671C466.52 360.462 458.834 372.831 455.681 389.777H650.786C647.633 372.831 639.947 360.462 627.728 352.671C615.509 344.879 598.462 340.983 576.587 340.983H529.88ZM530.767 476.847H576.587C598.659 476.847 615.706 472.951 627.728 465.16C639.947 457.368 647.633 444.902 650.786 427.761H455.681C458.834 444.902 466.52 457.368 478.739 465.16C490.957 472.951 508.3 476.847 530.767 476.847Z" fill="black"/>
<path d="M729.911 513.369V304.461H764.793L859.39 304.169C897.622 304.169 927.282 313.032 948.369 330.757C969.456 348.483 980 374.487 980 408.769C980 443.051 969.456 469.055 948.369 486.781C927.282 504.507 897.622 513.369 859.39 513.369H729.911ZM856.138 342.152H777.209V475.386H856.138C880.969 475.386 899.79 470.029 912.6 459.316C925.41 448.603 931.815 431.754 931.815 408.769C931.815 385.589 925.41 368.74 912.6 358.222C899.79 347.509 880.969 342.152 856.138 342.152Z" fill="black"/>
<path d="M217.088 776.369C179.908 776.369 151.098 767.518 130.659 749.817C110.22 731.921 100 705.467 100 670.453C100 635.635 110.22 609.375 130.659 591.674C151.098 573.778 180.59 564.83 219.132 564.83H271.691C310.234 564.83 339.725 573.778 360.164 591.674C380.604 609.375 390.823 635.635 390.823 670.453C390.823 705.467 380.604 731.921 360.164 749.817C339.725 767.518 310.72 776.369 273.151 776.369H217.088ZM222.344 602.761C200.737 602.761 183.899 606.651 171.83 614.432C159.761 622.213 152.169 634.565 149.055 651.488H341.769C338.654 634.565 331.062 622.213 318.993 614.432C306.924 606.651 290.086 602.761 268.479 602.761H222.344ZM223.22 738.437H268.479C290.281 738.437 307.119 734.547 318.993 726.766C331.062 718.986 338.654 706.537 341.769 689.419H149.055C152.169 706.537 159.761 718.986 171.83 726.766C183.899 734.547 201.029 738.437 223.22 738.437Z" fill="black"/>
<path d="M440.364 774.91V566.289H615.266C636.874 566.289 653.615 571.735 665.489 582.628C677.558 593.521 683.592 610.056 683.592 632.231C683.592 651.099 679.213 665.882 670.453 676.581C661.693 687.279 649.235 693.99 633.078 696.713L681.256 774.91H628.114L583.439 698.172H487.082V774.91H440.364ZM609.719 604.22H487.082V659.949L609.719 660.241C618.284 660.241 624.805 658.102 629.282 653.822C633.954 649.543 636.29 642.346 636.29 632.231C636.29 621.921 633.954 614.724 629.282 610.639C624.805 606.36 618.284 604.22 609.719 604.22Z" fill="black"/>
<path d="M823.493 776.369C802.275 776.369 785.534 773.645 773.27 768.199C761.007 762.558 752.247 754.096 746.991 742.814C741.735 731.532 739.107 717.332 739.107 700.215V566.289H785.826V700.215C785.826 714.998 789.232 725.113 796.046 730.56C803.053 735.811 814.83 738.437 831.376 738.437H887.731C904.277 738.437 915.957 735.811 922.77 730.56C929.777 725.113 933.281 714.998 933.281 700.215V566.289H980V700.215C980 717.332 977.372 731.532 972.116 742.814C966.86 754.096 958.101 762.558 945.837 768.199C933.573 773.645 916.833 776.369 895.615 776.369H823.493Z" fill="black"/>
</svg>
