<svg width="1080" height="1080" viewBox="0 0 1080 1080" fill="none" xmlns="http://www.w3.org/2000/svg">
<path fill-rule="evenodd" clip-rule="evenodd" d="M86 594.234V484.766H106.516L110.497 487.556V515.386V594.234H86ZM117.693 520.183V492.599L157.195 520.286H157.961L208.639 484.766H229.156V594.234H204.658V515.386L169.903 538.658V594.234H145.406V538.658L117.693 520.183Z" fill="black"/>
<path fill-rule="evenodd" clip-rule="evenodd" d="M305.892 595C286.397 595 271.29 590.356 260.573 581.068C249.855 571.677 244.496 557.796 244.496 539.423C244.496 535.943 244.69 532.626 245.079 529.472H270.218H371.269H396.408C396.797 532.626 396.991 535.943 396.991 539.423C396.991 557.796 391.633 571.677 380.915 581.068C370.198 590.356 354.989 595 335.289 595H305.892ZM395.19 522.582C392.803 512.429 388.044 504.264 380.915 498.086C370.198 488.695 354.734 484 334.524 484H306.964C286.754 484 271.29 488.695 260.573 498.086C253.443 504.264 248.685 512.429 246.298 522.582H272.14C274.263 517.153 277.603 512.968 282.161 510.028C288.489 505.945 297.318 503.903 308.648 503.903H332.839C344.169 503.903 352.999 505.945 359.327 510.028C363.885 512.968 367.225 517.153 369.347 522.582H395.19ZM309.108 575.097H332.839C344.271 575.097 353.101 573.055 359.327 568.972C365.655 564.89 369.636 558.357 371.269 549.375H270.218C271.852 558.357 275.832 564.89 282.161 568.972C288.489 573.055 297.472 575.097 309.108 575.097Z" fill="black"/>
<path fill-rule="evenodd" clip-rule="evenodd" d="M412.251 594.234V484.766H430.318L436.748 484.745V504.516V574.331V594.234H412.251ZM444.119 504.516H477.628C490.489 504.516 500.237 507.323 506.871 512.937C513.506 518.448 516.823 527.277 516.823 539.423C516.823 551.468 513.506 560.297 506.871 565.91C500.237 571.524 490.489 574.331 477.628 574.331H444.119V594.234H479.312C499.114 594.234 514.476 589.59 525.397 580.302C536.319 571.014 541.78 557.388 541.78 539.423C541.78 521.459 536.319 507.833 525.397 498.545C514.476 489.257 499.114 484.612 479.312 484.612L444.119 484.722V504.516Z" fill="black"/>
<path fill-rule="evenodd" clip-rule="evenodd" d="M615.397 595C595.901 595 580.795 590.356 570.077 581.068C562.924 574.8 558.158 566.533 555.779 556.265H581.617C583.737 561.783 587.087 566.019 591.665 568.972C597.994 573.055 606.976 575.097 618.612 575.097H642.344C653.776 575.097 662.605 573.055 668.832 568.972C673.41 566.019 676.76 561.783 678.881 556.265H704.718C702.339 566.533 697.573 574.8 690.42 581.068C679.702 590.356 664.494 595 644.794 595H615.397ZM579.723 549.375H680.774H705.92C706.304 546.219 706.496 542.902 706.496 539.423C706.496 521.153 701.137 507.374 690.42 498.086C679.702 488.695 664.238 484 644.028 484H616.469C596.259 484 580.795 488.695 570.077 498.086C559.36 507.374 554.001 521.153 554.001 539.423C554.001 542.902 554.193 546.219 554.577 549.375H579.723ZM618.153 503.903C606.823 503.903 597.994 505.945 591.665 510.028C585.337 514.11 581.356 520.592 579.723 529.472H680.774C679.141 520.592 675.16 514.11 668.832 510.028C662.503 505.945 653.674 503.903 642.344 503.903H618.153Z" fill="black"/>
<path fill-rule="evenodd" clip-rule="evenodd" d="M721.756 594.234V484.766H746.253V504.669V533.912V553.968V594.234H721.756ZM753.396 553.968H755.54H796.778L820.204 594.234H848.069L822.807 553.203C831.278 551.774 837.811 548.252 842.404 542.639C846.998 537.025 849.294 529.268 849.294 519.367C849.294 507.731 846.13 499.055 839.801 493.339C833.575 487.623 824.797 484.766 813.467 484.766H753.396V504.669H810.558C815.049 504.669 818.468 505.792 820.816 508.037C823.266 510.181 824.491 513.957 824.491 519.367C824.491 524.674 823.266 528.451 820.816 530.697C818.468 532.942 815.049 534.065 810.558 534.065L755.54 533.934L753.396 533.929V553.968Z" fill="black"/>
<path fill-rule="evenodd" clip-rule="evenodd" d="M899.576 594.297C903.31 594.766 907.43 595 911.934 595H949.752C960.878 595 969.656 593.571 976.086 590.713C982.517 587.753 987.11 583.313 989.866 577.393C992.622 571.473 994 564.022 994 555.04V484.766H969.503V555.04C969.503 562.797 967.665 568.105 963.991 570.963C960.418 573.719 954.294 575.097 945.618 575.097H916.068C908.83 575.097 903.333 574.138 899.576 572.22V594.297ZM892.183 592.941V555.04V484.766H867.686V555.04C867.686 564.022 869.064 571.473 871.82 577.393C874.576 583.313 879.169 587.753 885.6 590.713C887.573 591.59 889.768 592.333 892.183 592.941Z" fill="black"/>
<mask id="path-2-outside-1_8_650" maskUnits="userSpaceOnUse" x="85" y="644" width="910" height="113" fill="black">
<rect fill="white" x="85" y="644" width="910" height="113"/>
<path fill-rule="evenodd" clip-rule="evenodd" d="M86 755.234V645.766H106.516L110.497 648.556V676.386V755.234H86ZM117.693 681.183V653.599L157.195 681.286H157.961L208.639 645.766H229.156V755.234H204.658V676.386L169.903 699.658V755.234H145.406V699.658L117.693 681.183Z"/>
<path fill-rule="evenodd" clip-rule="evenodd" d="M305.892 756C286.397 756 271.29 751.356 260.573 742.068C249.855 732.677 244.496 718.796 244.496 700.423C244.496 696.943 244.69 693.626 245.079 690.472H270.218H371.269H396.408C396.797 693.626 396.991 696.943 396.991 700.423C396.991 718.796 391.633 732.677 380.915 742.068C370.198 751.356 354.989 756 335.289 756H305.892ZM395.19 683.582C392.803 673.429 388.044 665.264 380.915 659.086C370.198 649.695 354.734 645 334.524 645H306.964C286.754 645 271.29 649.695 260.573 659.086C253.443 665.264 248.685 673.429 246.298 683.582H272.14C274.263 678.153 277.603 673.968 282.161 671.028C288.489 666.945 297.318 664.903 308.648 664.903H332.839C344.169 664.903 352.999 666.945 359.327 671.028C363.885 673.968 367.225 678.153 369.347 683.582H395.19ZM309.108 736.097H332.839C344.271 736.097 353.101 734.055 359.327 729.972C365.655 725.89 369.636 719.357 371.269 710.375H270.218C271.852 719.357 275.832 725.89 282.161 729.972C288.489 734.055 297.472 736.097 309.108 736.097Z"/>
<path fill-rule="evenodd" clip-rule="evenodd" d="M412.251 755.234V645.766H430.318L436.748 645.745V665.516V735.331V755.234H412.251ZM444.119 665.516H477.628C490.489 665.516 500.237 668.323 506.871 673.937C513.506 679.448 516.823 688.277 516.823 700.423C516.823 712.468 513.506 721.297 506.871 726.91C500.237 732.524 490.489 735.331 477.628 735.331H444.119V755.234H479.312C499.114 755.234 514.476 750.59 525.397 741.302C536.319 732.014 541.78 718.388 541.78 700.423C541.78 682.459 536.319 668.833 525.397 659.545C514.476 650.257 499.114 645.612 479.312 645.612L444.119 645.722V665.516Z"/>
<path fill-rule="evenodd" clip-rule="evenodd" d="M615.397 756C595.901 756 580.795 751.356 570.077 742.068C562.924 735.8 558.158 727.533 555.779 717.265H581.617C583.737 722.783 587.087 727.019 591.665 729.972C597.994 734.055 606.976 736.097 618.612 736.097H642.344C653.776 736.097 662.605 734.055 668.832 729.972C673.41 727.019 676.76 722.783 678.881 717.265H704.718C702.339 727.533 697.573 735.8 690.42 742.068C679.702 751.356 664.494 756 644.794 756H615.397ZM579.723 710.375H680.774H705.92C706.304 707.219 706.496 703.902 706.496 700.423C706.496 682.153 701.137 668.374 690.42 659.086C679.702 649.695 664.238 645 644.028 645H616.469C596.259 645 580.795 649.695 570.077 659.086C559.36 668.374 554.001 682.153 554.001 700.423C554.001 703.902 554.193 707.219 554.577 710.375H579.723ZM618.153 664.903C606.823 664.903 597.994 666.945 591.665 671.028C585.337 675.11 581.356 681.592 579.723 690.472H680.774C679.141 681.592 675.16 675.11 668.832 671.028C662.503 666.945 653.674 664.903 642.344 664.903H618.153Z"/>
<path fill-rule="evenodd" clip-rule="evenodd" d="M721.755 755.234V645.766H746.253V665.669V694.912V714.968V755.234H721.755ZM753.396 714.968H755.54H796.778L820.204 755.234H848.069L822.807 714.203C831.278 712.774 837.811 709.252 842.404 703.639C846.998 698.025 849.294 690.268 849.294 680.367C849.294 668.731 846.13 660.055 839.802 654.339C833.575 648.623 824.797 645.766 813.467 645.766H753.396V665.669H810.558C815.049 665.669 818.469 666.792 820.816 669.037C823.266 671.181 824.491 674.957 824.491 680.367C824.491 685.674 823.266 689.451 820.816 691.697C818.469 693.942 815.049 695.065 810.558 695.065L755.54 694.934L753.396 694.929V714.968Z"/>
<path fill-rule="evenodd" clip-rule="evenodd" d="M899.576 755.297C903.31 755.766 907.43 756 911.934 756H949.752C960.878 756 969.656 754.571 976.086 751.713C982.517 748.753 987.11 744.313 989.866 738.393C992.622 732.473 994 725.022 994 716.04V645.766H969.503V716.04C969.503 723.797 967.665 729.105 963.991 731.963C960.418 734.719 954.294 736.097 945.618 736.097H916.068C908.83 736.097 903.333 735.138 899.576 733.22V755.297ZM892.183 753.941V716.04V645.766H867.686V716.04C867.686 725.022 869.064 732.473 871.82 738.393C874.576 744.313 879.169 748.753 885.6 751.713C887.573 752.59 889.768 753.333 892.183 753.941Z"/>
</mask>
<path d="M755.04 694.934V714.968H756.04V694.934H755.04ZM86 755.234H85V756.234H86V755.234ZM86 645.766V644.766H85V645.766H86ZM157.195 681.286L156.621 682.104L156.88 682.286H157.195V681.286ZM157.961 681.286V682.286H158.276L158.535 682.104L157.961 681.286ZM208.639 645.766V644.766H208.324L208.065 644.947L208.639 645.766ZM229.156 645.766H230.156V644.766H229.156V645.766ZM229.156 755.234V756.234H230.156V755.234H229.156ZM204.658 755.234H203.658V756.234H204.658V755.234ZM204.658 676.386H205.658V674.513L204.102 675.555L204.658 676.386ZM169.903 699.658L169.347 698.827L168.903 699.124V699.658H169.903ZM169.903 755.234V756.234H170.903V755.234H169.903ZM145.406 755.234H144.406V756.234H145.406V755.234ZM145.406 699.658H146.406V699.123L145.96 698.826L145.406 699.658ZM110.497 755.234V756.234H111.497V755.234H110.497ZM260.573 742.068L259.914 742.82L259.918 742.823L260.573 742.068ZM260.573 659.086L261.228 659.841L261.232 659.838L260.573 659.086ZM380.915 659.086L380.256 659.838L380.26 659.841L380.915 659.086ZM380.915 742.068L381.57 742.823L381.574 742.82L380.915 742.068ZM282.161 671.028L282.703 671.868L282.703 671.868L282.161 671.028ZM359.327 671.028L358.785 671.868L358.785 671.868L359.327 671.028ZM359.327 729.972L358.785 729.132L358.779 729.136L359.327 729.972ZM371.269 710.375L372.253 710.554L372.468 709.375H371.269V710.375ZM270.218 710.375V709.375H269.02L269.235 710.554L270.218 710.375ZM412.251 755.234H411.251V756.234H412.251V755.234ZM412.251 645.766V644.766H411.251V645.766H412.251ZM430.318 645.766L430.318 646.766L430.321 646.766L430.318 645.766ZM479.312 645.612V644.612L479.309 644.612L479.312 645.612ZM525.397 659.545L524.75 660.307L524.75 660.307L525.397 659.545ZM525.397 741.302L524.75 740.54L524.75 740.54L525.397 741.302ZM506.871 726.91L507.517 727.674L507.517 727.674L506.871 726.91ZM506.871 673.937L506.225 674.7L506.232 674.706L506.871 673.937ZM570.077 742.068L569.418 742.82L569.422 742.823L570.077 742.068ZM570.077 659.086L570.732 659.841L570.736 659.838L570.077 659.086ZM690.42 659.086L689.761 659.838L689.765 659.841L690.42 659.086ZM690.42 742.068L691.075 742.823L691.079 742.82L690.42 742.068ZM591.665 671.028L592.208 671.868L592.208 671.868L591.665 671.028ZM579.723 690.472L578.74 690.291L578.522 691.472H579.723V690.472ZM680.774 690.472V691.472H681.975L681.758 690.291L680.774 690.472ZM668.832 671.028L668.29 671.868L668.29 671.868L668.832 671.028ZM668.832 729.972L668.29 729.132L668.283 729.136L668.832 729.972ZM591.665 729.972L591.123 730.813L591.665 729.972ZM721.755 755.234H720.755V756.234H721.755V755.234ZM721.755 645.766V644.766H720.755V645.766H721.755ZM839.802 654.339L839.125 655.076L839.131 655.081L839.802 654.339ZM822.807 714.203L822.64 713.217L821.177 713.463L821.955 714.727L822.807 714.203ZM848.069 755.234V756.234H849.859L848.921 754.71L848.069 755.234ZM820.204 755.234L819.339 755.737L819.629 756.234H820.204V755.234ZM796.778 714.968L797.643 714.465L797.353 713.968H796.778V714.968ZM746.253 755.234V756.234H747.253V755.234H746.253ZM810.558 695.065L810.556 696.065H810.558V695.065ZM820.816 691.697L820.14 690.959L820.133 690.967L820.125 690.974L820.816 691.697ZM820.816 669.037L820.125 669.76L820.141 669.775L820.158 669.79L820.816 669.037ZM885.6 751.713L885.182 752.622L885.194 752.627L885.6 751.713ZM867.686 645.766V644.766H866.686V645.766H867.686ZM892.183 645.766H893.183V644.766H892.183V645.766ZM963.991 731.963L964.602 732.755L964.605 732.752L963.991 731.963ZM969.503 645.766V644.766H968.503V645.766H969.503ZM994 645.766H995V644.766H994V645.766ZM976.086 751.713L976.493 752.627L976.505 752.621L976.086 751.713ZM110.497 648.556H111.497V648.035L111.071 647.737L110.497 648.556ZM117.693 653.599L118.267 652.78L116.693 651.677V653.599H117.693ZM117.693 681.183H116.693V681.719L117.139 682.016L117.693 681.183ZM106.516 645.766L107.09 644.947L106.832 644.766H106.516V645.766ZM245.079 690.472V689.472H244.195L244.087 690.349L245.079 690.472ZM272.14 683.582V684.582H272.823L273.072 683.946L272.14 683.582ZM246.298 683.582L245.325 683.353L245.036 684.582H246.298V683.582ZM396.408 690.472L397.401 690.349L397.293 689.472H396.408V690.472ZM369.347 683.582L368.416 683.946L368.665 684.582H369.347V683.582ZM395.19 683.582V684.582H396.452L396.163 683.353L395.19 683.582ZM436.748 645.745H437.748V644.742L436.745 644.745L436.748 645.745ZM444.119 645.722L444.116 644.722L443.119 644.726V645.722H444.119ZM444.119 665.516H443.119V666.516H444.119V665.516ZM444.119 735.331V734.331H443.119V735.331H444.119ZM444.119 755.234H443.119V756.234H444.119V755.234ZM436.748 755.234V756.234H437.748V755.234H436.748ZM554.577 710.375L553.584 710.496L553.691 711.375H554.577V710.375ZM581.617 717.265L582.55 716.906L582.304 716.265H581.617V717.265ZM555.779 717.265V716.265H554.521L554.805 717.491L555.779 717.265ZM678.881 717.265V716.265H678.194L677.947 716.906L678.881 717.265ZM704.718 717.265L705.692 717.491L705.976 716.265H704.718V717.265ZM705.92 710.375V711.375H706.806L706.913 710.496L705.92 710.375ZM746.253 645.766H747.253V644.766H746.253V645.766ZM753.396 645.766V644.766H752.396V645.766H753.396ZM753.396 665.669H752.396V666.669H753.396V665.669ZM755.54 694.934L755.542 693.934L755.542 693.934L755.54 694.934ZM753.396 694.929L753.399 693.929L752.396 693.926V694.929H753.396ZM753.396 714.968H752.396V715.968H753.396V714.968ZM892.183 753.941L891.939 754.91L893.183 755.223V753.941H892.183ZM899.576 733.22L900.03 732.329L898.576 731.586V733.22H899.576ZM899.576 755.297H898.576V756.18L899.451 756.29L899.576 755.297ZM87 755.234V645.766H85V755.234H87ZM157.195 682.286H157.961V680.286H157.195V682.286ZM158.535 682.104L209.213 646.584L208.065 644.947L157.387 680.467L158.535 682.104ZM208.639 646.766H229.156V644.766H208.639V646.766ZM228.156 645.766V755.234H230.156V645.766H228.156ZM229.156 754.234H204.658V756.234H229.156V754.234ZM205.658 755.234V676.386H203.658V755.234H205.658ZM204.102 675.555L169.347 698.827L170.459 700.489L205.215 677.217L204.102 675.555ZM168.903 699.658V755.234H170.903V699.658H168.903ZM169.903 754.234H145.406V756.234H169.903V754.234ZM146.406 755.234V699.658H144.406V755.234H146.406ZM109.497 676.386V755.234H111.497V676.386H109.497ZM110.497 754.234H86V756.234H110.497V754.234ZM305.892 755C286.547 755 271.705 750.392 261.228 741.312L259.918 742.823C270.875 752.32 286.246 757 305.892 757V755ZM261.232 741.315C250.79 732.167 245.496 718.597 245.496 700.423H243.496C243.496 718.995 248.92 733.188 259.914 742.82L261.232 741.315ZM261.232 659.838C271.703 650.663 286.896 646 306.964 646V644C286.612 644 270.877 648.728 259.914 658.333L261.232 659.838ZM306.964 646H334.524V644H306.964V646ZM334.524 646C354.592 646 369.785 650.663 380.256 659.838L381.574 658.333C370.611 648.728 354.876 644 334.524 644V646ZM395.991 700.423C395.991 718.597 390.698 732.167 380.256 741.315L381.574 742.82C392.567 733.188 397.991 718.995 397.991 700.423H395.991ZM380.26 741.312C369.784 750.391 354.842 755 335.289 755V757C355.136 757 370.611 752.321 381.57 742.823L380.26 741.312ZM335.289 755H305.892V757H335.289V755ZM308.648 663.903C297.217 663.903 288.171 665.96 281.619 670.187L282.703 671.868C288.808 667.93 297.42 665.903 308.648 665.903V663.903ZM270.218 691.472H371.269V689.472H270.218V691.472ZM359.869 670.187C353.317 665.96 344.271 663.903 332.839 663.903V665.903C344.068 665.903 352.68 667.93 358.785 671.868L359.869 670.187ZM332.839 663.903H308.648V665.903H332.839V663.903ZM309.108 737.097H332.839V735.097H309.108V737.097ZM332.839 737.097C344.369 737.097 353.421 735.041 359.875 730.809L358.779 729.136C352.781 733.069 344.173 735.097 332.839 735.097V737.097ZM359.869 730.813C366.478 726.549 370.582 719.746 372.253 710.554L370.286 710.196C368.691 718.969 364.833 725.23 358.785 729.132L359.869 730.813ZM371.269 709.375H270.218V711.375H371.269V709.375ZM269.235 710.554C270.906 719.746 275.01 726.549 281.619 730.813L282.703 729.132C276.655 725.23 272.797 718.969 271.202 710.196L269.235 710.554ZM281.619 730.813C288.174 735.042 297.376 737.097 309.108 737.097V735.097C297.567 735.097 288.804 733.068 282.703 729.132L281.619 730.813ZM413.251 755.234V645.766H411.251V755.234H413.251ZM412.251 646.766H430.318V644.766H412.251V646.766ZM479.312 646.612C498.967 646.612 514.067 651.222 524.75 660.307L526.045 658.783C514.884 649.291 499.261 644.612 479.312 644.612V646.612ZM524.75 660.307C535.393 669.358 540.78 682.672 540.78 700.423H542.78C542.78 682.246 537.245 668.308 526.045 658.783L524.75 660.307ZM540.78 700.423C540.78 718.175 535.393 731.489 524.75 740.54L526.045 742.064C537.245 732.539 542.78 718.6 542.78 700.423H540.78ZM524.75 740.54C514.067 749.625 498.967 754.234 479.312 754.234V756.234C499.261 756.234 514.884 751.556 526.045 742.064L524.75 740.54ZM435.748 665.516V735.331H437.748V665.516H435.748ZM477.628 736.331C490.615 736.331 500.633 733.499 507.517 727.674L506.225 726.147C499.841 731.549 490.362 734.331 477.628 734.331V736.331ZM507.517 727.674C514.454 721.805 517.823 712.643 517.823 700.423H515.823C515.823 712.292 512.558 720.788 506.225 726.147L507.517 727.674ZM517.823 700.423C517.823 688.107 514.456 678.937 507.51 673.167L506.232 674.706C512.556 679.959 515.823 688.448 515.823 700.423H517.823ZM507.517 673.173C500.633 667.348 490.615 664.516 477.628 664.516V666.516C490.362 666.516 499.841 669.298 506.225 674.7L507.517 673.173ZM615.397 755C596.052 755 581.21 750.392 570.732 741.312L569.422 742.823C580.38 752.32 595.751 757 615.397 757V755ZM555.001 700.423C555.001 682.354 560.293 668.888 570.732 659.841L569.422 658.33C558.426 667.86 553.001 681.953 553.001 700.423H555.001ZM570.736 659.838C581.208 650.663 596.401 646 616.469 646V644C596.117 644 580.382 648.728 569.418 658.333L570.736 659.838ZM616.469 646H644.028V644H616.469V646ZM644.028 646C664.096 646 679.289 650.663 689.761 659.838L691.079 658.333C680.115 648.728 664.38 644 644.028 644V646ZM689.765 659.841C700.204 668.888 705.496 682.354 705.496 700.423H707.496C707.496 681.953 702.071 667.86 691.075 658.33L689.765 659.841ZM689.765 741.312C679.289 750.391 664.346 755 644.794 755V757C664.641 757 680.116 752.321 691.075 742.823L689.765 741.312ZM644.794 755H615.397V757H644.794V755ZM618.153 663.903C606.721 663.903 597.676 665.96 591.123 670.187L592.208 671.868C598.312 667.93 606.925 665.903 618.153 665.903V663.903ZM591.123 670.187C584.518 674.449 580.412 681.198 578.74 690.291L580.707 690.653C582.301 681.986 586.156 675.772 592.208 671.868L591.123 670.187ZM579.723 691.472H680.774V689.472H579.723V691.472ZM681.758 690.291C680.085 681.198 675.98 674.449 669.374 670.187L668.29 671.868C674.341 675.772 678.197 681.986 679.791 690.653L681.758 690.291ZM669.374 670.187C662.822 665.96 653.776 663.903 642.344 663.903V665.903C653.572 665.903 662.185 667.93 668.29 671.868L669.374 670.187ZM642.344 663.903H618.153V665.903H642.344V663.903ZM618.612 737.097H642.344V735.097H618.612V737.097ZM642.344 737.097C653.874 737.097 662.925 735.041 669.38 730.809L668.283 729.136C662.285 733.069 653.678 735.097 642.344 735.097V737.097ZM680.774 709.375H579.723V711.375H680.774V709.375ZM591.123 730.813C597.679 735.042 606.881 737.097 618.612 737.097V735.097C607.072 735.097 598.309 733.068 592.208 729.132L591.123 730.813ZM722.755 755.234V645.766H720.755V755.234H722.755ZM813.467 646.766C824.633 646.766 833.139 649.58 839.125 655.076L840.478 653.603C834.012 647.667 824.961 644.766 813.467 644.766V646.766ZM839.131 655.081C845.181 660.546 848.294 668.907 848.294 680.367H850.294C850.294 668.556 847.078 659.564 840.472 653.597L839.131 655.081ZM848.294 680.367C848.294 690.121 846.032 697.626 841.63 703.005L843.178 704.272C847.963 698.424 850.294 690.415 850.294 680.367H848.294ZM841.63 703.005C837.218 708.399 830.92 711.82 822.64 713.217L822.973 715.189C831.637 713.727 838.404 710.106 843.178 704.272L841.63 703.005ZM821.955 714.727L847.218 755.759L848.921 754.71L823.658 713.678L821.955 714.727ZM848.069 754.234H820.204V756.234H848.069V754.234ZM821.068 754.732L797.643 714.465L795.914 715.471L819.339 755.737L821.068 754.732ZM745.253 714.968V755.234H747.253V714.968H745.253ZM746.253 754.234H721.755V756.234H746.253V754.234ZM745.253 665.669V694.912H747.253V665.669H745.253ZM810.558 696.065C815.207 696.065 818.912 694.901 821.507 692.419L820.125 690.974C818.025 692.983 814.891 694.065 810.558 694.065V696.065ZM821.492 692.434C824.244 689.911 825.491 685.791 825.491 680.367H823.491C823.491 685.558 822.288 688.991 820.14 690.959L821.492 692.434ZM825.491 680.367C825.491 674.853 824.25 670.713 821.475 668.285L820.158 669.79C822.282 671.649 823.491 675.061 823.491 680.367H825.491ZM821.507 668.315C818.912 665.832 815.207 664.669 810.558 664.669V666.669C814.891 666.669 818.025 667.751 820.125 669.76L821.507 668.315ZM886.018 750.805C879.783 747.935 875.374 743.658 872.727 737.971L870.914 738.815C873.778 744.969 878.555 749.571 885.182 752.621L886.018 750.805ZM872.727 737.971C870.051 732.223 868.686 724.928 868.686 716.04H866.686C866.686 725.116 868.078 732.723 870.914 738.815L872.727 737.971ZM868.686 716.04V645.766H866.686V716.04H868.686ZM867.686 646.766H892.183V644.766H867.686V646.766ZM891.183 645.766V716.04H893.183V645.766H891.183ZM916.068 737.097H945.618V735.097H916.068V737.097ZM945.618 737.097C954.341 737.097 960.754 735.723 964.602 732.755L963.38 731.171C960.083 733.714 954.248 735.097 945.618 735.097V737.097ZM964.605 732.752C968.647 729.608 970.503 723.903 970.503 716.04H968.503C968.503 723.691 966.684 728.602 963.377 731.173L964.605 732.752ZM970.503 716.04V645.766H968.503V716.04H970.503ZM969.503 646.766H994V644.766H969.503V646.766ZM993 645.766V716.04H995V645.766H993ZM993 716.04C993 724.928 991.635 732.223 988.96 737.971L990.773 738.815C993.609 732.723 995 725.116 995 716.04H993ZM988.96 737.971C986.312 743.658 981.903 747.935 975.668 750.805L976.505 752.621C983.131 749.571 987.908 744.969 990.773 738.815L988.96 737.971ZM975.68 750.799C969.43 753.577 960.81 755 949.752 755V757C960.945 757 969.881 755.565 976.493 752.627L975.68 750.799ZM949.752 755H911.934V757H949.752V755ZM111.497 676.386V648.556H109.497V676.386H111.497ZM117.119 654.418L156.621 682.104L157.769 680.467L118.267 652.78L117.119 654.418ZM145.96 698.826L118.248 680.351L117.139 682.016L144.851 700.49L145.96 698.826ZM116.693 653.599V681.183H118.693V653.599H116.693ZM86 646.766H106.516V644.766H86V646.766ZM105.942 646.584L109.923 649.374L111.071 647.737L107.09 644.947L105.942 646.584ZM245.496 700.423C245.496 696.98 245.688 693.704 246.072 690.594L244.087 690.349C243.693 693.548 243.496 696.906 243.496 700.423H245.496ZM270.218 689.472H245.079V691.472H270.218V689.472ZM281.619 670.187C276.871 673.25 273.402 677.609 271.209 683.218L273.072 683.946C275.124 678.697 278.335 674.686 282.703 671.868L281.619 670.187ZM247.272 683.811C249.616 673.84 254.274 665.867 261.228 659.841L259.918 658.33C252.613 664.66 247.755 673.018 245.325 683.353L247.272 683.811ZM272.14 682.582H246.298V684.582H272.14V682.582ZM395.416 690.594C395.799 693.704 395.991 696.98 395.991 700.423H397.991C397.991 696.906 397.795 693.548 397.401 690.349L395.416 690.594ZM371.269 691.472H396.408V689.472H371.269V691.472ZM370.279 683.218C368.086 677.609 364.617 673.25 359.869 670.187L358.785 671.868C363.153 674.686 366.364 678.697 368.416 683.946L370.279 683.218ZM380.26 659.841C387.214 665.867 391.872 673.84 394.216 683.811L396.163 683.353C393.733 673.018 388.875 664.66 381.57 658.33L380.26 659.841ZM369.347 684.582H395.19V682.582H369.347V684.582ZM430.321 646.766L436.751 646.745L436.745 644.745L430.314 644.766L430.321 646.766ZM437.748 665.516V645.745H435.748V665.516H437.748ZM444.122 646.722L479.315 646.612L479.309 644.612L444.116 644.722L444.122 646.722ZM477.628 664.516H444.119V666.516H477.628V664.516ZM443.119 645.722V665.516H445.119V645.722H443.119ZM444.119 736.331H477.628V734.331H444.119V736.331ZM479.312 754.234H444.119V756.234H479.312V754.234ZM443.119 735.331V755.234H445.119V735.331H443.119ZM436.748 754.234H412.251V756.234H436.748V754.234ZM435.748 735.331V755.234H437.748V735.331H435.748ZM555.57 710.254C555.191 707.142 555.001 703.865 555.001 700.423H553.001C553.001 703.938 553.195 707.296 553.584 710.496L555.57 710.254ZM579.723 709.375H554.577V711.375H579.723V709.375ZM580.683 717.624C582.873 723.322 586.351 727.734 591.123 730.813L592.208 729.132C587.823 726.303 584.602 722.244 582.55 716.906L580.683 717.624ZM570.736 741.315C563.758 735.201 559.091 727.126 556.754 717.039L554.805 717.491C557.226 727.94 562.091 736.4 569.418 742.82L570.736 741.315ZM581.617 716.265H555.779V718.265H581.617V716.265ZM669.374 730.813C674.146 727.734 677.624 723.322 679.814 717.624L677.947 716.906C675.895 722.244 672.674 726.303 668.29 729.132L669.374 730.813ZM703.744 717.039C701.407 727.126 696.739 735.201 689.761 741.315L691.079 742.82C698.406 736.4 703.271 727.94 705.692 717.491L703.744 717.039ZM678.881 718.265H704.718V716.265H678.881V718.265ZM705.496 700.423C705.496 703.865 705.306 707.142 704.927 710.254L706.913 710.496C707.302 707.296 707.496 703.938 707.496 700.423H705.496ZM680.774 711.375H705.92V709.375H680.774V711.375ZM721.755 646.766H746.253V644.766H721.755V646.766ZM747.253 665.669V645.766H745.253V665.669H747.253ZM753.396 646.766H813.467V644.766H753.396V646.766ZM810.558 664.669H753.396V666.669H810.558V664.669ZM752.396 645.766V665.669H754.396V645.766H752.396ZM755.537 695.934L810.556 696.065L810.56 694.065L755.542 693.934L755.537 695.934ZM796.778 713.968H755.54V715.968H796.778V713.968ZM753.394 695.929L755.537 695.934L755.542 693.934L753.399 693.929L753.394 695.929ZM755.54 713.968H753.396V715.968H755.54V713.968ZM752.396 694.929V714.968H754.396V694.929H752.396ZM747.253 714.968V694.912H745.253V714.968H747.253ZM892.427 752.971C890.059 752.375 887.92 751.65 886.006 750.799L885.194 752.627C887.227 753.53 889.476 754.291 891.939 754.91L892.427 752.971ZM891.183 716.04V753.941H893.183V716.04H891.183ZM899.121 734.11C903.086 736.134 908.77 737.097 916.068 737.097V735.097C908.89 735.097 903.579 734.141 900.03 732.329L899.121 734.11ZM911.934 755C907.464 755 903.386 754.768 899.7 754.305L899.451 756.29C903.234 756.764 907.396 757 911.934 757V755ZM898.576 733.22V755.297H900.576V733.22H898.576Z" fill="url(#paint0_radial_8_650)" mask="url(#path-2-outside-1_8_650)"/>
<mask id="path-4-outside-2_8_650" maskUnits="userSpaceOnUse" x="85" y="322" width="910" height="113" fill="black">
<rect fill="white" x="85" y="322" width="910" height="113"/>
<path fill-rule="evenodd" clip-rule="evenodd" d="M86 433.234V323.766H106.516L110.497 326.556V433.234H86ZM117.693 359.183V331.599L157.195 359.286H157.961L208.639 323.766H229.156V433.234H204.658V354.386L169.903 377.658V433.234H145.406V377.658L117.693 359.183Z"/>
<path fill-rule="evenodd" clip-rule="evenodd" d="M305.892 434C286.397 434 271.29 429.356 260.573 420.068C249.855 410.677 244.496 396.796 244.496 378.423C244.496 374.943 244.69 371.626 245.079 368.472H396.408C396.797 371.626 396.991 374.943 396.991 378.423C396.991 396.796 391.633 410.677 380.915 420.068C370.198 429.356 354.989 434 335.289 434H305.892ZM395.19 361.582C392.803 351.429 388.044 343.264 380.915 337.086C370.198 327.695 354.734 323 334.524 323H306.964C286.754 323 271.29 327.695 260.573 337.086C253.443 343.264 248.685 351.429 246.298 361.582H272.14C274.263 356.153 277.603 351.968 282.161 349.028C288.489 344.945 297.318 342.903 308.648 342.903H332.839C344.169 342.903 352.999 344.945 359.327 349.028C363.885 351.968 367.225 356.153 369.347 361.582H395.19ZM309.108 414.097H332.839C344.271 414.097 353.101 412.055 359.327 407.972C365.655 403.89 369.636 397.357 371.269 388.375H270.218C271.852 397.357 275.832 403.89 282.161 407.972C288.489 412.055 297.472 414.097 309.108 414.097Z"/>
<path fill-rule="evenodd" clip-rule="evenodd" d="M412.251 433.234V323.766H430.318L436.748 323.745V433.234H412.251ZM444.119 343.516H477.628C490.489 343.516 500.237 346.323 506.871 351.937C513.506 357.448 516.823 366.277 516.823 378.423C516.823 390.468 513.506 399.297 506.871 404.91C500.237 410.524 490.489 413.331 477.628 413.331H444.119V433.234H479.312C499.114 433.234 514.476 428.59 525.397 419.302C536.319 410.014 541.78 396.388 541.78 378.423C541.78 360.459 536.319 346.833 525.397 337.545C514.476 328.257 499.114 323.612 479.312 323.612L444.119 323.722V343.516Z"/>
<path fill-rule="evenodd" clip-rule="evenodd" d="M615.397 434C595.901 434 580.795 429.356 570.077 420.068C562.924 413.8 558.158 405.533 555.779 395.265H581.617C583.737 400.783 587.087 405.019 591.665 407.972C597.994 412.055 606.976 414.097 618.612 414.097H642.344C653.776 414.097 662.605 412.055 668.832 407.972C673.41 405.019 676.76 400.783 678.881 395.265H704.718C702.339 405.533 697.573 413.8 690.42 420.068C679.702 429.356 664.494 434 644.794 434H615.397ZM705.92 388.375C706.304 385.219 706.496 381.902 706.496 378.423C706.496 360.153 701.137 346.374 690.42 337.086C679.702 327.695 664.238 323 644.028 323H616.469C596.259 323 580.795 327.695 570.077 337.086C559.36 346.374 554.001 360.153 554.001 378.423C554.001 381.902 554.193 385.219 554.577 388.375H705.92ZM618.153 342.903C606.823 342.903 597.994 344.945 591.665 349.028C585.337 353.11 581.356 359.592 579.723 368.472H680.774C679.141 359.592 675.16 353.11 668.832 349.028C662.503 344.945 653.674 342.903 642.344 342.903H618.153Z"/>
<path fill-rule="evenodd" clip-rule="evenodd" d="M721.755 433.234V323.766H746.253V433.234H721.755ZM753.396 392.968H755.54H796.778L820.204 433.234H848.069L822.807 392.203C831.278 390.774 837.811 387.252 842.404 381.639C846.998 376.025 849.294 368.268 849.294 358.367C849.294 346.731 846.13 338.055 839.802 332.339C833.575 326.623 824.797 323.766 813.467 323.766H753.396V343.669H810.558C815.049 343.669 818.469 344.792 820.816 347.037C823.266 349.181 824.491 352.957 824.491 358.367C824.491 363.674 823.266 367.451 820.816 369.697C818.469 371.942 815.049 373.065 810.558 373.065L755.54 372.934L753.396 372.929V392.968Z"/>
<path fill-rule="evenodd" clip-rule="evenodd" d="M899.576 433.297C903.31 433.766 907.43 434 911.934 434H949.752C960.878 434 969.656 432.571 976.086 429.713C982.517 426.753 987.11 422.313 989.866 416.393C992.622 410.473 994 403.022 994 394.04V323.766H969.503V394.04C969.503 401.797 967.665 407.105 963.991 409.963C960.418 412.719 954.294 414.097 945.618 414.097H916.068C908.83 414.097 903.333 413.138 899.576 411.22V433.297ZM892.183 431.941V323.766H867.686V394.04C867.686 403.022 869.064 410.473 871.82 416.393C874.576 422.313 879.169 426.753 885.6 429.713C887.573 430.59 889.768 431.333 892.183 431.941Z"/>
</mask>
<path d="M755.04 372.934V392.968H756.04V372.934H755.04ZM86 433.234H85V434.234H86V433.234ZM86 323.766V322.766H85V323.766H86ZM157.195 359.286L156.621 360.104L156.88 360.286H157.195V359.286ZM157.961 359.286V360.286H158.276L158.535 360.104L157.961 359.286ZM208.639 323.766V322.766H208.324L208.065 322.947L208.639 323.766ZM229.156 323.766H230.156V322.766H229.156V323.766ZM229.156 433.234V434.234H230.156V433.234H229.156ZM204.658 433.234H203.658V434.234H204.658V433.234ZM204.658 354.386H205.658V352.513L204.102 353.555L204.658 354.386ZM169.903 377.658L169.347 376.827L168.903 377.124V377.658H169.903ZM169.903 433.234V434.234H170.903V433.234H169.903ZM145.406 433.234H144.406V434.234H145.406V433.234ZM145.406 377.658H146.406V377.123L145.96 376.826L145.406 377.658ZM110.497 433.234V434.234H111.497V433.234H110.497ZM260.573 420.068L259.914 420.82L259.918 420.823L260.573 420.068ZM260.573 337.086L261.228 337.841L261.232 337.838L260.573 337.086ZM380.915 337.086L380.256 337.838L380.26 337.841L380.915 337.086ZM380.915 420.068L381.57 420.823L381.574 420.82L380.915 420.068ZM282.161 349.028L282.703 349.868L282.703 349.868L282.161 349.028ZM359.327 349.028L358.785 349.868L358.785 349.868L359.327 349.028ZM359.327 407.972L358.785 407.132L358.779 407.136L359.327 407.972ZM371.269 388.375L372.253 388.554L372.468 387.375H371.269V388.375ZM270.218 388.375V387.375H269.02L269.235 388.554L270.218 388.375ZM412.251 433.234H411.251V434.234H412.251V433.234ZM412.251 323.766V322.766H411.251V323.766H412.251ZM430.318 323.766L430.318 324.766L430.321 324.766L430.318 323.766ZM479.312 323.612L479.312 322.612L479.309 322.612L479.312 323.612ZM525.397 337.545L524.75 338.307L524.75 338.307L525.397 337.545ZM525.397 419.302L524.75 418.54L524.75 418.54L525.397 419.302ZM506.871 404.91L507.517 405.674L507.517 405.674L506.871 404.91ZM506.871 351.937L506.225 352.7L506.232 352.706L506.871 351.937ZM570.077 420.068L569.418 420.82L569.422 420.823L570.077 420.068ZM570.077 337.086L570.732 337.841L570.736 337.838L570.077 337.086ZM690.42 337.086L689.761 337.838L689.765 337.841L690.42 337.086ZM690.42 420.068L691.075 420.823L691.079 420.82L690.42 420.068ZM591.665 349.028L592.208 349.868L592.208 349.868L591.665 349.028ZM579.723 368.472L578.74 368.291L578.522 369.472H579.723V368.472ZM680.774 368.472V369.472H681.975L681.758 368.291L680.774 368.472ZM668.832 349.028L668.29 349.868L668.29 349.868L668.832 349.028ZM668.832 407.972L668.29 407.132L668.283 407.136L668.832 407.972ZM591.665 407.972L592.208 407.132L591.665 407.972ZM721.755 433.234H720.755V434.234H721.755V433.234ZM721.755 323.766V322.766H720.755V323.766H721.755ZM839.802 332.339L839.125 333.076L839.131 333.081L839.802 332.339ZM822.807 392.203L822.64 391.217L821.177 391.463L821.955 392.727L822.807 392.203ZM848.069 433.234V434.234H849.859L848.921 432.71L848.069 433.234ZM820.204 433.234L819.339 433.737L819.629 434.234H820.204V433.234ZM796.778 392.968L797.643 392.465L797.353 391.968H796.778V392.968ZM746.253 433.234V434.234H747.253V433.234H746.253ZM810.558 373.065L810.556 374.065H810.558V373.065ZM820.816 369.697L820.14 368.959L820.133 368.967L820.125 368.974L820.816 369.697ZM820.816 347.037L820.125 347.76L820.141 347.775L820.158 347.79L820.816 347.037ZM885.6 429.713L885.182 430.622L885.194 430.627L885.6 429.713ZM867.686 323.766V322.766H866.686V323.766H867.686ZM892.183 323.766H893.183V322.766H892.183V323.766ZM963.991 409.963L964.602 410.755L964.605 410.752L963.991 409.963ZM969.503 323.766V322.766H968.503V323.766H969.503ZM994 323.766H995V322.766H994V323.766ZM976.086 429.713L976.493 430.627L976.505 430.621L976.086 429.713ZM110.497 326.556H111.497V326.035L111.071 325.737L110.497 326.556ZM117.693 331.599L118.267 330.78L116.693 329.677V331.599H117.693ZM117.693 359.183H116.693V359.719L117.139 360.016L117.693 359.183ZM106.516 323.766L107.09 322.947L106.832 322.766H106.516V323.766ZM245.079 368.472V367.472H244.195L244.087 368.349L245.079 368.472ZM272.14 361.582V362.582H272.823L273.072 361.946L272.14 361.582ZM246.298 361.582L245.325 361.353L245.036 362.582H246.298V361.582ZM396.408 368.472L397.401 368.349L397.293 367.472H396.408V368.472ZM369.347 361.582L368.416 361.946L368.665 362.582H369.347V361.582ZM395.19 361.582V362.582H396.452L396.163 361.353L395.19 361.582ZM436.748 323.745H437.748V322.742L436.745 322.745L436.748 323.745ZM444.119 323.722L444.116 322.722L443.119 322.726V323.722H444.119ZM444.119 343.516H443.119V344.516H444.119V343.516ZM444.119 413.331V412.331H443.119V413.331H444.119ZM444.119 433.234H443.119V434.234H444.119V433.234ZM436.748 433.234V434.234H437.748V433.234H436.748ZM554.577 388.375L553.584 388.496L553.691 389.375H554.577V388.375ZM581.617 395.265L582.55 394.906L582.304 394.265H581.617V395.265ZM555.779 395.265V394.265H554.521L554.805 395.491L555.779 395.265ZM678.881 395.265V394.265H678.194L677.947 394.906L678.881 395.265ZM704.718 395.265L705.692 395.491L705.976 394.265H704.718V395.265ZM705.92 388.375V389.375H706.806L706.913 388.496L705.92 388.375ZM746.253 323.766H747.253V322.766H746.253V323.766ZM753.396 323.766V322.766H752.396V323.766H753.396ZM753.396 343.669H752.396V344.669H753.396V343.669ZM755.54 372.934L755.542 371.934L755.542 371.934L755.54 372.934ZM753.396 372.929L753.399 371.929L752.396 371.926V372.929H753.396ZM753.396 392.968H752.396V393.968H753.396V392.968ZM892.183 431.941L891.939 432.91L893.183 433.223V431.941H892.183ZM899.576 411.22L900.03 410.329L898.576 409.586V411.22H899.576ZM899.576 433.297H898.576V434.18L899.451 434.29L899.576 433.297ZM87 433.234V323.766H85V433.234H87ZM157.195 360.286H157.961V358.286H157.195V360.286ZM158.535 360.104L209.213 324.584L208.065 322.947L157.387 358.467L158.535 360.104ZM208.639 324.766H229.156V322.766H208.639V324.766ZM228.156 323.766V433.234H230.156V323.766H228.156ZM229.156 432.234H204.658V434.234H229.156V432.234ZM205.658 433.234V354.386H203.658V433.234H205.658ZM204.102 353.555L169.347 376.827L170.459 378.489L205.215 355.217L204.102 353.555ZM168.903 377.658V433.234H170.903V377.658H168.903ZM169.903 432.234H145.406V434.234H169.903V432.234ZM146.406 433.234V377.658H144.406V433.234H146.406ZM110.497 432.234H86V434.234H110.497V432.234ZM305.892 433C286.547 433 271.705 428.392 261.228 419.312L259.918 420.823C270.875 430.32 286.246 435 305.892 435V433ZM261.232 419.315C250.79 410.167 245.496 396.597 245.496 378.423H243.496C243.496 396.995 248.92 411.188 259.914 420.82L261.232 419.315ZM261.232 337.838C271.703 328.663 286.896 324 306.964 324V322C286.612 322 270.877 326.728 259.914 336.333L261.232 337.838ZM306.964 324H334.524V322H306.964V324ZM334.524 324C354.592 324 369.785 328.663 380.256 337.838L381.574 336.333C370.611 326.728 354.876 322 334.524 322V324ZM395.991 378.423C395.991 396.597 390.698 410.167 380.256 419.315L381.574 420.82C392.567 411.188 397.991 396.995 397.991 378.423H395.991ZM380.26 419.312C369.784 428.391 354.842 433 335.289 433V435C355.136 435 370.611 430.321 381.57 420.823L380.26 419.312ZM335.289 433H305.892V435H335.289V433ZM308.648 341.903C297.217 341.903 288.171 343.96 281.619 348.187L282.703 349.868C288.808 345.93 297.42 343.903 308.648 343.903V341.903ZM359.869 348.187C353.317 343.96 344.271 341.903 332.839 341.903V343.903C344.068 343.903 352.68 345.93 358.785 349.868L359.869 348.187ZM332.839 341.903H308.648V343.903H332.839V341.903ZM309.108 415.097H332.839V413.097H309.108V415.097ZM332.839 415.097C344.369 415.097 353.421 413.041 359.875 408.809L358.779 407.136C352.781 411.069 344.173 413.097 332.839 413.097V415.097ZM359.869 408.813C366.478 404.549 370.582 397.746 372.253 388.554L370.286 388.196C368.691 396.969 364.833 403.23 358.785 407.132L359.869 408.813ZM371.269 387.375H270.218V389.375H371.269V387.375ZM269.235 388.554C270.906 397.746 275.01 404.549 281.619 408.813L282.703 407.132C276.655 403.23 272.797 396.969 271.202 388.196L269.235 388.554ZM281.619 408.813C288.174 413.042 297.376 415.097 309.108 415.097V413.097C297.567 413.097 288.804 411.068 282.703 407.132L281.619 408.813ZM413.251 433.234V323.766H411.251V433.234H413.251ZM412.251 324.766H430.318V322.766H412.251V324.766ZM479.312 324.612C498.967 324.612 514.067 329.222 524.75 338.307L526.045 336.783C514.884 327.291 499.261 322.612 479.312 322.612V324.612ZM524.75 338.307C535.393 347.358 540.78 360.672 540.78 378.423H542.78C542.78 360.246 537.245 346.308 526.045 336.783L524.75 338.307ZM540.78 378.423C540.78 396.175 535.393 409.489 524.75 418.54L526.045 420.064C537.245 410.539 542.78 396.6 542.78 378.423H540.78ZM524.75 418.54C514.067 427.625 498.967 432.234 479.312 432.234V434.234C499.261 434.234 514.884 429.556 526.045 420.064L524.75 418.54ZM477.628 414.331C490.615 414.331 500.633 411.499 507.517 405.674L506.225 404.147C499.841 409.549 490.362 412.331 477.628 412.331V414.331ZM507.517 405.674C514.454 399.805 517.823 390.643 517.823 378.423H515.823C515.823 390.292 512.558 398.788 506.225 404.147L507.517 405.674ZM517.823 378.423C517.823 366.107 514.456 356.937 507.51 351.167L506.232 352.706C512.556 357.959 515.823 366.448 515.823 378.423H517.823ZM507.517 351.173C500.633 345.348 490.615 342.516 477.628 342.516V344.516C490.362 344.516 499.841 347.298 506.225 352.7L507.517 351.173ZM615.397 433C596.052 433 581.21 428.392 570.732 419.312L569.422 420.823C580.38 430.32 595.751 435 615.397 435V433ZM555.001 378.423C555.001 360.354 560.293 346.888 570.732 337.841L569.422 336.33C558.426 345.86 553.001 359.953 553.001 378.423H555.001ZM570.736 337.838C581.208 328.663 596.401 324 616.469 324V322C596.117 322 580.382 326.728 569.418 336.333L570.736 337.838ZM616.469 324H644.028V322H616.469V324ZM644.028 324C664.096 324 679.289 328.663 689.761 337.838L691.079 336.333C680.115 326.728 664.38 322 644.028 322V324ZM689.765 337.841C700.204 346.888 705.496 360.354 705.496 378.423H707.496C707.496 359.953 702.071 345.86 691.075 336.33L689.765 337.841ZM689.765 419.312C679.289 428.391 664.346 433 644.794 433V435C664.641 435 680.116 430.321 691.075 420.823L689.765 419.312ZM644.794 433H615.397V435H644.794V433ZM618.153 341.903C606.721 341.903 597.676 343.96 591.123 348.187L592.208 349.868C598.312 345.93 606.925 343.903 618.153 343.903V341.903ZM591.123 348.187C584.518 352.449 580.412 359.198 578.74 368.291L580.707 368.653C582.301 359.986 586.156 353.772 592.208 349.868L591.123 348.187ZM579.723 369.472H680.774V367.472H579.723V369.472ZM681.758 368.291C680.085 359.198 675.98 352.449 669.374 348.187L668.29 349.868C674.341 353.772 678.197 359.986 679.791 368.653L681.758 368.291ZM669.374 348.187C662.822 343.96 653.776 341.903 642.344 341.903V343.903C653.572 343.903 662.185 345.93 668.29 349.868L669.374 348.187ZM642.344 341.903H618.153V343.903H642.344V341.903ZM618.612 415.097H642.344V413.097H618.612V415.097ZM642.344 415.097C653.874 415.097 662.925 413.041 669.38 408.809L668.283 407.136C662.285 411.069 653.678 413.097 642.344 413.097V415.097ZM591.123 408.813C597.679 413.042 606.881 415.097 618.612 415.097V413.097C607.072 413.097 598.309 411.068 592.208 407.132L591.123 408.813ZM722.755 433.234V323.766H720.755V433.234H722.755ZM813.467 324.766C824.633 324.766 833.139 327.58 839.125 333.076L840.478 331.603C834.012 325.667 824.961 322.766 813.467 322.766V324.766ZM839.131 333.081C845.181 338.546 848.294 346.907 848.294 358.367H850.294C850.294 346.556 847.078 337.564 840.472 331.597L839.131 333.081ZM848.294 358.367C848.294 368.121 846.032 375.626 841.63 381.005L843.178 382.272C847.963 376.424 850.294 368.415 850.294 358.367H848.294ZM841.63 381.005C837.218 386.399 830.92 389.82 822.64 391.217L822.973 393.189C831.637 391.727 838.404 388.106 843.178 382.272L841.63 381.005ZM821.955 392.727L847.218 433.759L848.921 432.71L823.658 391.678L821.955 392.727ZM848.069 432.234H820.204V434.234H848.069V432.234ZM821.068 432.732L797.643 392.465L795.914 393.471L819.339 433.737L821.068 432.732ZM746.253 432.234H721.755V434.234H746.253V432.234ZM810.558 374.065C815.207 374.065 818.912 372.901 821.507 370.419L820.125 368.974C818.025 370.983 814.891 372.065 810.558 372.065V374.065ZM821.492 370.434C824.244 367.911 825.491 363.791 825.491 358.367H823.491C823.491 363.558 822.288 366.991 820.14 368.959L821.492 370.434ZM825.491 358.367C825.491 352.853 824.25 348.713 821.475 346.285L820.158 347.79C822.282 349.649 823.491 353.061 823.491 358.367H825.491ZM821.507 346.315C818.912 343.832 815.207 342.669 810.558 342.669V344.669C814.891 344.669 818.025 345.751 820.125 347.76L821.507 346.315ZM886.018 428.805C879.783 425.935 875.374 421.658 872.727 415.971L870.914 416.815C873.778 422.969 878.555 427.571 885.182 430.621L886.018 428.805ZM872.727 415.971C870.051 410.223 868.686 402.928 868.686 394.04H866.686C866.686 403.116 868.078 410.723 870.914 416.815L872.727 415.971ZM868.686 394.04V323.766H866.686V394.04H868.686ZM867.686 324.766H892.183V322.766H867.686V324.766ZM916.068 415.097H945.618V413.097H916.068V415.097ZM945.618 415.097C954.341 415.097 960.754 413.723 964.602 410.755L963.38 409.171C960.083 411.714 954.248 413.097 945.618 413.097V415.097ZM964.605 410.752C968.647 407.608 970.503 401.903 970.503 394.04H968.503C968.503 401.691 966.684 406.602 963.377 409.173L964.605 410.752ZM970.503 394.04V323.766H968.503V394.04H970.503ZM969.503 324.766H994V322.766H969.503V324.766ZM993 323.766V394.04H995V323.766H993ZM993 394.04C993 402.928 991.635 410.223 988.96 415.971L990.773 416.815C993.609 410.723 995 403.116 995 394.04H993ZM988.96 415.971C986.312 421.658 981.903 425.935 975.668 428.805L976.505 430.621C983.131 427.571 987.908 422.969 990.773 416.815L988.96 415.971ZM975.68 428.799C969.43 431.577 960.81 433 949.752 433V435C960.945 435 969.881 433.565 976.493 430.627L975.68 428.799ZM949.752 433H911.934V435H949.752V433ZM117.119 332.418L156.621 360.104L157.769 358.467L118.267 330.78L117.119 332.418ZM145.96 376.826L118.248 358.351L117.139 360.016L144.851 378.49L145.96 376.826ZM116.693 331.599V359.183H118.693V331.599H116.693ZM86 324.766H106.516V322.766H86V324.766ZM105.942 324.584L109.923 327.374L111.071 325.737L107.09 322.947L105.942 324.584ZM245.496 378.423C245.496 374.98 245.688 371.704 246.072 368.594L244.087 368.349C243.693 371.548 243.496 374.906 243.496 378.423H245.496ZM281.619 348.187C276.871 351.25 273.402 355.609 271.209 361.218L273.072 361.946C275.124 356.697 278.335 352.686 282.703 349.868L281.619 348.187ZM247.272 361.811C249.616 351.84 254.274 343.867 261.228 337.841L259.918 336.33C252.613 342.66 247.755 351.018 245.325 361.353L247.272 361.811ZM272.14 360.582H246.298V362.582H272.14V360.582ZM395.416 368.594C395.799 371.704 395.991 374.98 395.991 378.423H397.991C397.991 374.906 397.795 371.548 397.401 368.349L395.416 368.594ZM370.279 361.218C368.086 355.609 364.617 351.25 359.869 348.187L358.785 349.868C363.153 352.686 366.364 356.697 368.416 361.946L370.279 361.218ZM380.26 337.841C387.214 343.867 391.872 351.84 394.216 361.811L396.163 361.353C393.733 351.018 388.875 342.66 381.57 336.33L380.26 337.841ZM369.347 362.582H395.19V360.582H369.347V362.582ZM430.321 324.766L436.751 324.745L436.745 322.745L430.314 322.766L430.321 324.766ZM444.122 324.722L479.315 324.612L479.309 322.612L444.116 322.722L444.122 324.722ZM477.628 342.516H444.119V344.516H477.628V342.516ZM443.119 323.722V343.516H445.119V323.722H443.119ZM444.119 414.331H477.628V412.331H444.119V414.331ZM479.312 432.234H444.119V434.234H479.312V432.234ZM443.119 413.331V433.234H445.119V413.331H443.119ZM436.748 432.234H412.251V434.234H436.748V432.234ZM555.57 388.254C555.191 385.142 555.001 381.865 555.001 378.423H553.001C553.001 381.938 553.195 385.296 553.584 388.496L555.57 388.254ZM580.683 395.624C582.873 401.322 586.351 405.734 591.123 408.813L592.208 407.132C587.823 404.303 584.602 400.244 582.55 394.906L580.683 395.624ZM570.736 419.315C563.758 413.201 559.091 405.126 556.754 395.039L554.805 395.491C557.226 405.94 562.091 414.4 569.418 420.82L570.736 419.315ZM581.617 394.265H555.779V396.265H581.617V394.265ZM669.374 408.813C674.146 405.734 677.624 401.322 679.814 395.624L677.947 394.906C675.895 400.244 672.674 404.303 668.29 407.132L669.374 408.813ZM703.744 395.039C701.407 405.126 696.739 413.201 689.761 419.315L691.079 420.82C698.406 414.4 703.271 405.94 705.692 395.491L703.744 395.039ZM678.881 396.265H704.718V394.265H678.881V396.265ZM705.496 378.423C705.496 381.865 705.306 385.142 704.927 388.254L706.913 388.496C707.302 385.296 707.496 381.938 707.496 378.423H705.496ZM721.755 324.766H746.253V322.766H721.755V324.766ZM753.396 324.766H813.467V322.766H753.396V324.766ZM810.558 342.669H753.396V344.669H810.558V342.669ZM752.396 323.766V343.669H754.396V323.766H752.396ZM755.537 373.934L810.556 374.065L810.56 372.065L755.542 371.934L755.537 373.934ZM796.778 391.968H755.54V393.968H796.778V391.968ZM753.394 373.929L755.537 373.934L755.542 371.934L753.399 371.929L753.394 373.929ZM755.54 391.968H753.396V393.968H755.54V391.968ZM752.396 372.929V392.968H754.396V372.929H752.396ZM892.427 430.971C890.059 430.375 887.92 429.65 886.006 428.799L885.194 430.627C887.227 431.53 889.476 432.291 891.939 432.91L892.427 430.971ZM899.121 412.11C903.086 414.134 908.77 415.097 916.068 415.097V413.097C908.89 413.097 903.579 412.141 900.03 410.329L899.121 412.11ZM911.934 433C907.464 433 903.386 432.768 899.7 432.305L899.451 434.29C903.234 434.764 907.396 435 911.934 435V433ZM898.576 411.22V433.297H900.576V411.22H898.576ZM109.497 326.556V433.234H111.497V326.556H109.497ZM245.079 369.472H396.408V367.472H245.079V369.472ZM435.748 323.745V433.234H437.748V323.745H435.748ZM705.92 387.375H554.577V389.375H705.92V387.375ZM745.253 323.766V433.234H747.253V323.766H745.253ZM891.183 323.766V431.941H893.183V323.766H891.183Z" fill="url(#paint1_radial_8_650)" mask="url(#path-4-outside-2_8_650)"/>
<defs>
<radialGradient id="paint0_radial_8_650" cx="0" cy="0" r="1" gradientUnits="userSpaceOnUse" gradientTransform="translate(540 645) rotate(90) scale(111 539.797)">
<stop/>
<stop offset="1" stop-opacity="0"/>
</radialGradient>
<radialGradient id="paint1_radial_8_650" cx="0" cy="0" r="1" gradientUnits="userSpaceOnUse" gradientTransform="translate(540 434) rotate(-90) scale(111 537.6)">
<stop/>
<stop offset="1" stop-opacity="0"/>
</radialGradient>
</defs>
</svg>
